<?xml version="1.0" standalone="no"?>
<!DOCTYPE svg PUBLIC "-//W3C//DTD SVG 20010904//EN"
 "http://www.w3.org/TR/2001/REC-SVG-20010904/DTD/svg10.dtd">
<svg version="1.0" xmlns="http://www.w3.org/2000/svg"
 width="300.000000pt" height="170.000000pt" viewBox="0 0 300.000000 170.000000"
 preserveAspectRatio="xMidYMid meet">
<metadata>
Created by potrace 1.10, written by Peter Selinger 2001-2011
</metadata>
<g transform="translate(0.000000,170.000000) scale(0.100000,-0.100000)"
fill="#000000" stroke="none">
<path d="M491 1665 c-35 -8 -84 -21 -110 -29 -61 -20 -185 -46 -221 -46 l-29
0 30 -61 c17 -33 47 -113 68 -179 48 -146 91 -228 154 -293 l48 -49 -37 -40
c-76 -85 -113 -213 -114 -398 -1 -63 -7 -148 -14 -188 -11 -67 -11 -72 5 -67
35 11 188 25 280 25 108 0 226 26 295 64 l42 24 38 -55 c64 -93 160 -154 334
-212 52 -17 126 -47 164 -66 38 -19 70 -34 71 -32 1 1 7 36 13 77 6 41 25 118
42 170 63 195 63 326 0 450 -17 33 -32 60 -34 60 -3 0 -2 -24 1 -53 7 -71 -9
-142 -57 -249 -22 -49 -46 -110 -52 -136 -7 -26 -13 -48 -14 -50 -1 -1 -25 13
-54 33 -29 19 -89 53 -134 75 -105 52 -177 115 -213 188 -52 106 -31 265 53
392 25 38 29 54 32 140 5 109 -6 156 -63 270 -49 97 -113 163 -200 206 -67 33
-84 37 -167 40 -58 2 -117 -2 -157 -11z m301 -48 c68 -31 152 -113 191 -185
15 -29 25 -52 21 -52 -3 0 2 -10 10 -22 9 -12 16 -34 16 -47 l0 -25 -22 29
c-88 116 -177 160 -323 160 -52 0 -240 -19 -302 -31 -32 -6 -35 -31 -14 -109
10 -39 22 -88 25 -110 16 -100 39 -166 65 -184 26 -18 27 -18 101 12 58 23 93
31 155 33 72 3 78 2 61 -11 -11 -8 -26 -15 -34 -15 -22 0 -94 -46 -129 -82
-54 -56 -112 -199 -113 -278 -1 -14 -9 -61 -20 -105 -17 -71 -17 -83 -4 -102
13 -20 23 -23 82 -23 37 0 94 -4 127 -10 33 -5 77 -10 98 -12 38 -2 54 -28 17
-28 -11 0 -20 -5 -20 -12 0 -6 -3 -9 -6 -5 -4 3 -23 -1 -42 -9 -40 -16 -87
-22 -242 -29 -58 -3 -117 -7 -132 -10 -57 -9 -60 -4 -53 129 12 261 14 275 45
349 17 40 46 92 65 116 19 24 35 51 35 60 0 9 -23 44 -51 76 -58 69 -110 165
-134 251 -10 32 -31 92 -47 133 -16 40 -27 78 -25 84 2 6 39 18 83 28 43 10
122 29 174 43 127 34 256 32 342 -7z m63 -206 c35 -18 76 -46 91 -64 42 -49
82 -144 96 -225 l12 -73 -40 -37 c-22 -20 -55 -58 -73 -85 -75 -110 -108 -301
-74 -426 l6 -24 -129 8 c-71 5 -159 9 -196 9 -38 0 -68 1 -68 2 0 1 6 19 14
40 7 22 19 73 25 114 27 169 51 235 113 305 32 37 100 77 152 89 36 9 172 9
224 1 l37 -6 -23 20 c-88 76 -341 84 -488 15 -28 -13 -54 -24 -57 -24 -9 0
-45 120 -56 191 -10 60 -29 130 -45 169 -5 12 2 15 36 12 24 -2 84 4 133 12
134 22 232 15 310 -23z m78 -666 c5 -61 28 -145 39 -145 4 0 8 -7 8 -15 0 -8
4 -15 8 -15 5 0 15 -11 22 -26 12 -22 138 -124 154 -124 9 0 100 -42 106 -49
5 -6 38 -26 79 -47 41 -22 63 -4 96 77 27 66 52 121 89 199 17 37 31 22 32
-36 2 -62 -15 -148 -55 -279 -17 -55 -31 -110 -31 -121 0 -45 -22 -47 -112
-10 -47 19 -107 42 -134 51 -106 35 -176 78 -259 163 -45 45 -90 82 -101 82
-18 1 -18 1 0 15 16 12 17 23 11 99 -6 86 8 198 28 224 13 17 14 15 20 -43z"/>
<path d="M1212 1088 c-7 -7 -12 -28 -12 -48 0 -41 27 -74 56 -68 27 5 28 26 2
30 -19 2 -23 9 -23 38 0 30 3 35 23 33 14 -2 22 3 22 12 0 18 -50 21 -68 3z"/>
<path d="M1342 1088 c-17 -17 -15 -84 4 -102 34 -34 74 -6 74 53 0 42 -14 61
-45 61 -12 0 -26 -5 -33 -12z m48 -54 c0 -24 -5 -34 -15 -34 -10 0 -15 10 -15
33 0 19 3 37 6 40 13 13 24 -5 24 -39z"/>
<path d="M1485 1088 c-2 -7 -5 -37 -8 -65 -3 -40 -1 -53 9 -53 10 0 14 15 14
52 0 59 11 57 19 -3 8 -54 24 -54 33 0 11 62 18 63 18 3 0 -41 3 -52 16 -52
12 0 15 6 10 23 -3 12 -6 41 -6 65 0 34 -3 42 -19 42 -13 0 -21 -11 -28 -42
-8 -33 -11 -37 -12 -16 0 14 -4 33 -7 42 -7 19 -33 21 -39 4z"/>
<path d="M1654 1039 c1 -40 5 -64 14 -67 7 -2 12 6 12 21 0 16 8 28 26 35 20
10 25 18 22 40 -3 23 -8 27 -39 30 l-37 3 2 -62z"/>
<path d="M1792 1053 c-6 -27 -14 -56 -17 -65 -5 -11 -2 -18 5 -18 7 0 19 8 26
18 13 16 15 16 28 0 7 -10 19 -18 26 -18 7 0 10 7 5 18 -3 9 -11 38 -17 65 -8
33 -16 47 -28 47 -12 0 -20 -14 -28 -47z"/>
<path d="M1920 1035 c0 -51 3 -65 15 -65 11 0 15 12 16 43 l1 42 15 -42 c23
-67 43 -56 43 22 0 50 -3 65 -14 65 -11 0 -13 -9 -9 -37 7 -44 -12 -38 -22 7
-5 21 -13 30 -26 30 -17 0 -19 -8 -19 -65z"/>
<path d="M2070 1093 c1 -5 7 -19 15 -33 8 -14 14 -40 15 -57 0 -23 5 -33 15
-33 11 0 15 11 15 35 0 20 7 49 15 65 14 26 14 30 1 30 -8 0 -19 -8 -25 -17
-9 -17 -10 -17 -16 0 -7 16 -35 25 -35 10z"/>
<path d="M2300 1036 c0 -54 3 -66 16 -66 13 0 15 7 9 43 -8 47 4 43 21 -6 6
-18 18 -33 27 -35 15 -3 17 6 17 62 0 52 -3 66 -15 66 -11 0 -15 -11 -16 -37
l-1 -38 -12 35 c-7 19 -20 36 -29 38 -15 3 -17 -6 -17 -62z"/>
<path d="M2476 1088 c-3 -7 -11 -35 -20 -62 -19 -59 -19 -56 -5 -56 7 0 18 8
25 18 13 16 15 16 28 0 7 -10 19 -18 25 -18 7 0 10 8 7 18 -3 9 -10 38 -17 65
-11 45 -35 64 -43 35z"/>
<path d="M2595 1039 c-4 -33 -5 -63 -2 -66 14 -13 27 12 28 55 l1 47 10 -52
c5 -29 13 -53 18 -53 5 0 13 24 18 53 l10 52 1 -47 c1 -43 14 -68 28 -55 3 3
2 33 -2 66 -6 51 -10 61 -26 61 -15 0 -19 -7 -19 -35 0 -19 -4 -35 -10 -35 -5
0 -10 16 -10 35 0 28 -4 35 -19 35 -16 0 -20 -10 -26 -61z"/>
<path d="M2770 1035 l0 -65 30 0 c20 0 30 5 30 15 0 8 -9 15 -20 15 -26 0 -25
14 3 33 l22 16 -22 0 c-28 1 -30 21 -3 28 30 8 24 23 -10 23 l-30 0 0 -65z"/>
<path d="M1320 891 c0 -5 -2 -15 -5 -23 -3 -8 3 -13 19 -14 22 -2 24 0 14 22
-11 24 -28 33 -28 15z"/>
<path d="M1424 885 c-8 -20 4 -35 27 -35 23 0 25 18 3 27 -13 5 -13 7 -2 14
10 7 9 9 -5 9 -10 0 -20 -7 -23 -15z"/>
<path d="M1730 873 c0 -22 2 -25 10 -13 6 10 10 11 10 3 0 -7 5 -13 10 -13 6
0 10 12 10 28 0 21 -2 24 -10 12 -6 -10 -10 -11 -10 -2 0 6 -4 12 -10 12 -5 0
-10 -12 -10 -27z"/>
<path d="M1850 875 c0 -17 5 -25 18 -25 14 0 15 2 2 10 -13 9 -13 10 0 10 12
0 13 2 1 9 -11 7 -11 9 0 14 10 4 9 6 -3 6 -13 1 -18 -7 -18 -24z"/>
<path d="M2034 885 c-3 -8 -3 -19 1 -25 9 -15 35 -12 35 5 0 8 -6 15 -12 15
-9 0 -8 4 2 10 13 8 12 10 -3 10 -10 0 -20 -7 -23 -15z"/>
<path d="M2148 888 c-8 -21 2 -38 23 -38 14 0 19 7 19 25 0 18 -5 25 -19 25
-10 0 -21 -6 -23 -12z"/>
<path d="M2269 898 c-10 -36 -7 -48 14 -48 16 0 18 3 9 9 -8 4 -14 12 -14 16
0 4 6 12 14 16 10 7 9 9 -4 9 -10 0 -18 -1 -19 -2z"/>
<path d="M2365 891 c-3 -5 0 -13 6 -17 8 -4 7 -9 -2 -15 -10 -6 -8 -9 9 -9 23
0 30 14 11 26 -8 4 -7 9 2 15 11 7 10 9 -3 9 -9 0 -19 -4 -23 -9z"/>
<path d="M2550 875 c0 -26 15 -34 23 -12 4 10 6 10 6 0 2 -24 21 -13 21 12 0
26 -15 34 -23 13 -4 -10 -6 -10 -6 0 -2 23 -21 12 -21 -13z"/>
<path d="M2670 875 c0 -17 5 -25 18 -25 14 0 15 2 2 10 -13 9 -13 10 0 10 12
0 13 2 1 9 -11 7 -11 9 0 14 10 4 9 6 -3 6 -13 1 -18 -7 -18 -24z"/>
<path d="M2770 876 c0 -19 5 -26 18 -26 24 0 23 44 -1 48 -12 3 -17 -4 -17
-22z"/>
<path d="M2880 875 c0 -14 6 -25 13 -25 7 0 13 11 13 25 0 14 -6 25 -13 25 -7
0 -13 -11 -13 -25z"/>
</g>
</svg>
